<?xml version="1.0" standalone="no"?>
<!DOCTYPE svg PUBLIC "-//W3C//DTD SVG 20010904//EN"
 "http://www.w3.org/TR/2001/REC-SVG-20010904/DTD/svg10.dtd">
<svg version="1.0" xmlns="http://www.w3.org/2000/svg"
 width="1200.000000pt" height="1200.000000pt" viewBox="0 0 1200.000000 1200.000000"
 preserveAspectRatio="xMidYMid meet">
<metadata>
Created by potrace 1.14, written by Peter Selinger 2001-2017
</metadata>
<g transform="translate(0.000000,1200.000000) scale(0.100000,-0.100000)"
fill="#000000" stroke="none">
<path d="M5819 11185 c-2 -1 -44 -6 -94 -10 -145 -11 -168 -14 -200 -19 -16
-3 -68 -10 -115 -16 -47 -6 -96 -13 -110 -16 -14 -3 -40 -7 -59 -10 -218 -31
-686 -164 -956 -272 -169 -68 -204 -83 -410 -187 -365 -184 -642 -367 -970
-639 -121 -101 -462 -436 -545 -535 -25 -30 -50 -59 -55 -65 -35 -38 -145
-179 -218 -281 -48 -66 -90 -124 -95 -130 -18 -23 -101 -154 -127 -200 -16
-27 -34 -57 -40 -65 -26 -32 -217 -400 -263 -505 -96 -224 -174 -435 -231
-630 -23 -79 -81 -307 -87 -345 -3 -14 -11 -56 -19 -95 -8 -38 -17 -86 -20
-105 -3 -19 -8 -42 -10 -50 -2 -8 -7 -40 -10 -70 -3 -30 -8 -62 -10 -70 -2 -8
-6 -44 -10 -80 -3 -36 -7 -78 -10 -95 -12 -99 -19 -282 -19 -510 0 -275 5
-371 29 -565 3 -19 7 -57 10 -85 3 -27 8 -61 10 -75 6 -35 16 -90 20 -120 3
-22 14 -76 45 -226 100 -479 325 -1039 600 -1494 152 -252 366 -541 554 -750
72 -79 338 -343 414 -410 309 -272 676 -521 1047 -710 124 -63 157 -78 340
-157 70 -31 255 -100 325 -123 280 -90 533 -153 785 -194 78 -13 93 -15 130
-20 22 -3 65 -8 95 -11 30 -3 69 -8 85 -10 199 -27 793 -27 995 0 19 3 58 7
85 10 343 31 867 162 1243 310 166 66 219 90 412 187 443 221 851 508 1199
842 181 174 368 378 478 522 12 16 39 52 61 79 285 368 552 860 720 1325 88
244 187 616 217 815 3 22 7 47 10 55 2 8 6 38 10 65 3 28 8 57 10 65 2 8 6 46
10 83 3 37 8 76 10 86 20 102 28 716 12 909 -11 141 -44 405 -62 497 -12 59
-36 180 -40 200 -10 46 -75 295 -93 355 -109 361 -259 707 -459 1060 -88 156
-365 559 -434 630 -8 8 -32 38 -54 65 -110 137 -334 370 -495 515 -52 46 -104
93 -115 103 -11 10 -45 37 -75 60 -30 23 -57 44 -60 48 -36 39 -352 258 -515
356 -330 197 -642 341 -1015 466 -216 73 -504 144 -735 181 -142 22 -239 35
-325 42 -36 3 -78 7 -95 11 -32 6 -700 14 -706 8z"/>
</g>
</svg>
